# xmcd
# 
# Track frame offsets:
#     150
#     10815
#     21605
#     34235
#     47595
#     59635
#     77273
#     95445
#     107850
#     121260
#     132603
# 
# Disc length: 2041
# 
# Revision: 9
# Processed by: cddbd v1.5.2PL0 Copyright (c) Steve Scherf et al.
# Submitted via: fre:ac v1.0.31
# 
DISCID=9207f70b
DTITLE=Original Soundtrack - The Big Chill (More Songs From...)
DYEAR=1984
DGENRE=Soundtrack
TTITLE0=Bad Moon Rising
TTITLE1=Wouldn't It Be Nice
TTITLE2=It's The Same Old Song
TTITLE3=When A Man Loves A Woman
TTITLE4=Dancing In The Streets
TTITLE5=What's Going On
TTITLE6=In The Midnight Hour
TTITLE7=Quicksilver Girl
TTITLE8=Gimme Some Lovin'
TTITLE9=Too Many Fish In The Sea
TTITLE10=The Weight
EXTD=YEAR: 1984
EXTT0=
EXTT1=
EXTT2=
EXTT3=
EXTT4=
EXTT5=
EXTT6=
EXTT7=
EXTT8=
EXTT9=
EXTT10=
PLAYORDER=
